<svg width="18" height="16" viewBox="0 0 18 16" fill="none" xmlns="http://www.w3.org/2000/svg">
<path d="M9.00002 1.82922C8.09203 0.994304 6.90353 0.530923 5.67002 0.530884C5.01714 0.531564 4.37084 0.66135 3.76831 0.912774C3.16577 1.1642 2.61891 1.5323 2.15919 1.99588C0.198358 3.96505 0.199191 7.04505 2.16086 9.00588L8.27086 15.1159C8.41252 15.3651 8.68586 15.5259 9.00002 15.5259C9.12902 15.5246 9.25593 15.4931 9.37055 15.4339C9.48518 15.3748 9.58432 15.2895 9.66002 15.1851L15.8392 9.00588C17.8009 7.04422 17.8009 3.96505 15.8375 1.99255C15.378 1.52981 14.8316 1.16246 14.2297 0.91162C13.6277 0.660775 12.9821 0.531383 12.33 0.530884C11.0965 0.531085 9.90811 0.994444 9.00002 1.82922ZM14.6592 3.17088C15.9617 4.48005 15.9625 6.52505 14.6609 7.82755L9.00002 13.4884L3.33919 7.82755C2.03752 6.52505 2.03836 4.48005 3.33752 3.17422C3.97086 2.54422 4.79919 2.19755 5.67002 2.19755C6.54086 2.19755 7.36586 2.54422 7.99419 3.17255L8.41086 3.58922C8.48818 3.66667 8.58002 3.72812 8.68111 3.77005C8.78221 3.81197 8.89058 3.83355 9.00002 3.83355C9.10947 3.83355 9.21784 3.81197 9.31894 3.77005C9.42003 3.72812 9.51187 3.66667 9.58919 3.58922L10.0059 3.17255C11.2659 1.91505 13.4009 1.91838 14.6592 3.17088Z" fill="#DC3845" style="fill:#DC3845;fill:color(display-p3 0.8620 0.2180 0.2717);fill-opacity:1;"/>
</svg>
