<svg width="18" height="18" viewBox="0 0 18 18" fill="none" xmlns="http://www.w3.org/2000/svg">
<path d="M16.285 9.8708C15.7203 10.0208 15.1385 10.0967 14.5542 10.0966C12.775 10.0966 11.1042 9.40497 9.84919 8.14997C9.02506 7.32109 8.43258 6.29069 8.13079 5.16146C7.829 4.03224 7.82845 2.84364 8.12919 1.71414C8.16675 1.57291 8.16651 1.4243 8.1285 1.2832C8.09049 1.14209 8.01604 1.01347 7.91262 0.910223C7.80921 0.806976 7.68046 0.732739 7.5393 0.694958C7.39814 0.657178 7.24952 0.657182 7.10836 0.69497C5.69432 1.07179 4.40424 1.81382 3.36752 2.84664C0.119191 6.09497 0.119191 11.3825 3.36752 14.6325C4.13963 15.4089 5.05805 16.0245 6.06964 16.4436C7.08123 16.8627 8.16589 17.077 9.26086 17.0741C10.3555 17.0772 11.4399 16.8631 12.4513 16.4441C13.4626 16.0251 14.3807 15.4096 15.1525 14.6333C16.1861 13.5964 16.9285 12.3056 17.305 10.8908C17.3424 10.7496 17.3421 10.6011 17.3041 10.4601C17.2661 10.3191 17.1918 10.1906 17.0885 10.0873C16.9853 9.98404 16.8567 9.90969 16.7157 9.8717C16.5747 9.83371 16.4262 9.8334 16.285 9.8708ZM13.975 13.455C13.3575 14.0759 12.623 14.5682 11.8139 14.9033C11.0049 15.2385 10.1374 15.4098 9.26169 15.4075C8.38568 15.4096 7.51794 15.2381 6.70863 14.9029C5.89932 14.5676 5.16451 14.0752 4.54669 13.4541C1.94836 10.855 1.94836 6.62497 4.54669 4.0258C5.04878 3.52428 5.62844 3.10698 6.26336 2.78997C6.17042 3.98919 6.33748 5.19433 6.75313 6.32304C7.16877 7.45176 7.8232 8.47743 8.67169 9.32997C9.52236 10.1811 10.5477 10.8374 11.6769 11.2533C12.8061 11.6693 14.0122 11.835 15.2117 11.7391C14.893 12.373 14.4755 12.9521 13.975 13.455Z" fill="#282525" style="fill:#282525;fill:color(display-p3 0.1560 0.1440 0.1450);fill-opacity:1;"/>
</svg>
