<svg width="18" height="18" viewBox="0 0 18 18" fill="none" xmlns="http://www.w3.org/2000/svg">
<path d="M4.8275 9.00002C4.8275 11.3009 6.69917 13.1725 9 13.1725C11.3008 13.1725 13.1725 11.3009 13.1725 9.00002C13.1725 6.69919 11.3008 4.82752 9 4.82752C6.69917 4.82752 4.8275 6.69919 4.8275 9.00002ZM9 6.49419C10.3817 6.49419 11.5058 7.61835 11.5058 9.00002C11.5058 10.3817 10.3817 11.5059 9 11.5059C7.61833 11.5059 6.49417 10.3817 6.49417 9.00002C6.49417 7.61835 7.61833 6.49419 9 6.49419ZM8.165 14.8334H9.83167V17.3334H8.165V14.8334ZM8.165 0.666687H9.83167V3.16669H8.165V0.666687ZM0.664999 8.16669H3.165V9.83335H0.664999V8.16669ZM14.8317 8.16669H17.3317V9.83335H14.8317V8.16669ZM2.51583 14.3025L4.2825 12.5342L5.46167 13.7125L3.695 15.4809L2.51583 14.3025ZM12.5333 4.28669L14.3017 2.51835L15.48 3.69669L13.7117 5.46502L12.5333 4.28669ZM4.285 5.46585L2.51667 3.69752L3.69583 2.51919L5.4625 4.28752L4.285 5.46585ZM15.48 14.3034L14.3017 15.4817L12.5333 13.7134L13.7117 12.535L15.48 14.3034Z" fill="#F3F2F2" style="fill:#F3F2F2;fill:color(display-p3 0.9520 0.9480 0.9483);fill-opacity:1;"/>
</svg>
